<svg clip-rule="evenodd" fill-rule="evenodd" stroke-linejoin="round" stroke-miterlimit="1.41421" viewBox="0 0 90 90" xmlns="http://www.w3.org/2000/svg"><circle cx="45" cy="45" fill="#00933b" r="45"/><path d="
m37.4642 56.3607c.3689 2.0182 1.0742 3.5753 2.1159 4.6712 1.0416 1.0959 2.5607 1.6439 4.5573 1.6439 2.3003 0 4.0527-.8084 5.2571-2.4251 1.2045-1.6168 1.8067-3.6513 1.8067-6.1036 0-2.4088-.5643-4.4433-1.6927-6.1035-1.1285-1.6601-2.8863-2.4902-5.2735-2.4902-1.1284 0-2.105.141-2.9297.4232-1.454.5208-2.5499 1.4865-3.2877 2.8971l-8.3334-.3906 3.3204-26.0742h26.0091v7.8776h-19.3034l-1.6927 10.319c1.4323-.9332 2.5499-1.5517 3.3528-1.8555 1.3455-.4991 2.984-.7487 4.9154-.7487 3.9063 0 7.3134 1.3129 10.2214 3.9388 2.9079 2.6259 4.3619 6.4453 4.3619 11.4583 0 4.362-1.3997 8.2574-4.1992 11.6862-2.7995 3.4289-6.9878 5.1433-12.5651 5.1433-4.4922 0-8.1814-1.2045-11.0677-3.6133-2.8863-2.4089-4.4922-5.8268-4.8177-10.2539z
" fill="#fff" fill-rule="nonzero"/></svg>