<svg clip-rule="evenodd" fill-rule="evenodd" stroke-linejoin="round" stroke-miterlimit="1.41421" viewBox="0 0 90 90" xmlns="http://www.w3.org/2000/svg"><circle cx="45" cy="45" fill="#ff6219" r="45"/><path d="m35.7389 29.3424v10.5795h11.7839c2.105 0 3.814-.3961 5.1269-1.1882 1.313-.7921 1.9694-2.1972 1.9694-4.2155 0-2.2352-.868-3.7109-2.6041-4.4271-1.4974-.4991-3.4071-.7487-5.7292-.7487zm0 18.5222v12.793h11.7839c2.105 0 3.7435-.2822 4.9154-.8464 2.1267-1.0417 3.1901-3.0382 3.1901-5.9896 0-2.4956-1.0309-4.2101-3.0925-5.1432-1.1502-.5208-2.7669-.7921-4.8503-.8138zm26.237-21.7448c1.4757 2.0399 2.2136 4.4813 2.2136 7.3242 0 2.9297-.7379 5.2843-2.2136 7.0638-.8246.9983-2.0399 1.9097-3.6458 2.7344 2.4522.8897 4.3023 2.3003 5.5501 4.2318 1.2478 1.9314 1.8718 4.2751 1.8718 7.0312 0 2.8429-.7162 5.3928-2.1485 7.6497-.9114 1.4974-2.0508 2.7561-3.418 3.7761-1.5408 1.1719-3.3582 1.9748-5.4524 2.4088-2.0942.4341-4.3674.6511-6.8197.6511h-21.7448v-47.9818h23.3073c5.8811.0868 10.0478 1.7904 12.5 5.1107z" fill="#fff" fill-rule="nonzero"/></svg>