<svg clip-rule="evenodd" fill-rule="evenodd" stroke-linejoin="round" stroke-miterlimit="1.41421" viewBox="0 0 90 90" xmlns="http://www.w3.org/2000/svg"><circle cx="45" cy="45" fill="#2852ad" r="45"/><path d="
m30.6608 26.0221c3.9063-3.9496 8.8759-5.9244 14.9089-5.9244 8.0729 0 13.9757 2.6475 17.7083 7.9427 2.0616 2.9731 3.1684 5.957 3.3203 8.9518h-10.026c-.6511-2.3004-1.4866-4.0365-2.5065-5.2083-1.823-2.0834-4.5248-3.125-8.1055-3.125-3.6458 0-6.5213 1.4702-8.6263 4.4108-2.1051 2.9405-3.1576 7.1017-3.1576 12.4837 0 5.3819 1.1122 9.413 3.3366 12.0931s5.051 4.0202 8.4798 4.0202c3.5157 0 6.1958-1.1502 8.0404-3.4506 1.02-1.2369 1.8663-3.0924 2.5391-5.5664h9.9284c-.8681 5.2301-3.0871 9.4835-6.6569 12.7605-3.5699 3.2769-8.1435 4.9153-13.7208 4.9153-6.901 0-12.3263-2.2135-16.276-6.6406-3.9496-4.4488-5.9245-10.5469-5.9245-18.2943 0-8.3767 2.2461-14.8329 6.7383-19.3685z
" fill="#fff" fill-rule="nonzero"/></svg>